HIERARCHY
ROOT Hips
{
    OFFSET 0.000000 0.000000 0.000000
    CHANNELS 6 Xposition Yposition Zposition Zrotation Xrotation Yrotation
    JOINT Spine
    {
        OFFSET 0.000002 7.756658 -0.000012
        CHANNELS 3 Zrotation Xrotation Yrotation
        JOINT Spine1
        {
            OFFSET 0.000007 20.811090 -0.000045
            CHANNELS 3 Zrotation Xrotation Yrotation
            JOINT Neck
            {
                OFFSET 0.000007 22.515327 -0.000037
                CHANNELS 3 Zrotation Xrotation Yrotation
                JOINT Head
                {
                    OFFSET -0.000005 14.501746 1.902187
                    CHANNELS 3 Zrotation Xrotation Yrotation
                    End Site
                    {
                        OFFSET 0.000000 19.022141 0.000000
                    }
                }
            }
            JOINT LeftShoulder
            {
                OFFSET 3.797828 16.121201 -0.677287
                CHANNELS 3 Zrotation Xrotation Yrotation
                JOINT LeftArm
                {
                    OFFSET 11.576579 0.000005 0.000018
                    CHANNELS 3 Zrotation Xrotation Yrotation
                    JOINT LeftForeArm
                    {
                        OFFSET 29.906395 0.000006 -0.000006
                        CHANNELS 3 Zrotation Xrotation Yrotation
                        JOINT LeftHand
                        {
                            OFFSET 24.318306 0.000006 0.000010
                            CHANNELS 3 Zrotation Xrotation Yrotation
                            JOINT LeftHandThumb1
                            {
                                OFFSET 1.987813 -2.258873 3.162430
                                CHANNELS 3 Zrotation Xrotation Yrotation
                                JOINT LeftHandThumb2
                                {
                                    OFFSET 3.002280 0.000015 -0.000003
                                    CHANNELS 3 Zrotation Xrotation Yrotation
                                    JOINT LeftHandThumb3
                                    {
                                        OFFSET 2.566101 -0.000002 0.000004
                                        CHANNELS 3 Zrotation Xrotation Yrotation
                                        End Site
                                        {
                                            OFFSET 2.440626 0.000000 0.000000
                                        }
                                    }
                                }
                            }
                            JOINT LeftHandIndex1
                            {
                                OFFSET 8.131968 0.000005 3.162434
                                CHANNELS 3 Zrotation Xrotation Yrotation
                                JOINT LeftHandIndex2
                                {
                                    OFFSET 4.517768 -0.000005 0.000003
                                    CHANNELS 3 Zrotation Xrotation Yrotation
                                    JOINT LeftHandIndex3
                                    {
                                        OFFSET 2.258862 0.000007 -0.000003
                                        CHANNELS 3 Zrotation Xrotation Yrotation
                                        End Site
                                        {
                                            OFFSET 2.148437 0.000000 0.000000
                                        }
                                    }
                                }
                            }
                            JOINT LeftHandMiddle1
                            {
                                OFFSET 8.131959 0.000009 1.048122
                                CHANNELS 3 Zrotation Xrotation Yrotation
                                JOINT LeftHandMiddle2
                                {
                                    OFFSET 4.969531 -0.000002 0.000006
                                    CHANNELS 3 Zrotation Xrotation Yrotation
                                    JOINT LeftHandMiddle3
                                    {
                                        OFFSET 2.710667 -0.000010 0.000006
                                        CHANNELS 3 Zrotation Xrotation Yrotation
                                        End Site
                                        {
                                            OFFSET 2.578118 0.000000 0.000000
                                        }
                                    }
                                }
                            }
                            JOINT LeftHandRing1
                            {
                                OFFSET 7.680212 -0.000004 -1.048116
                                CHANNELS 3 Zrotation Xrotation Yrotation
                                JOINT LeftHandRing2
                                {
                                    OFFSET 4.517768 -0.000004 0.000004
                                    CHANNELS 3 Zrotation Xrotation Yrotation
                                    JOINT LeftHandRing3
                                    {
                                        OFFSET 2.258862 0.000008 -0.000000
                                        CHANNELS 3 Zrotation Xrotation Yrotation
                                        End Site
                                        {
                                            OFFSET 2.148437 0.000000 0.000000
                                        }
                                    }
                                }
                            }
                            JOINT LeftHandPinky1
                            {
                                OFFSET 7.228394 0.000009 -3.162429
                                CHANNELS 3 Zrotation Xrotation Yrotation
                                JOINT LeftHandPinky2
                                {
                                    OFFSET 3.614196 0.000003 0.000003
                                    CHANNELS 3 Zrotation Xrotation Yrotation
                                    JOINT LeftHandPinky3
                                    {
                                        OFFSET 1.807101 0.000006 -0.000000
                                        CHANNELS 3 Zrotation Xrotation Yrotation
                                        End Site
                                        {
                                            OFFSET 1.718745 0.000000 0.000000
                                        }
                                    }
                                }
                            }
                        }
                    }
                }
            }
            JOINT RightShoulder
            {
                OFFSET -3.797829 16.121201 -0.677311
                CHANNELS 3 Zrotation Xrotation Yrotation
                JOINT RightArm
                {
                    OFFSET -11.576583 0.000003 -0.000004
                    CHANNELS 3 Zrotation Xrotation Yrotation
                    JOINT RightForeArm
                    {
                        OFFSET -29.906404 0.000003 -0.000004
                        CHANNELS 3 Zrotation Xrotation Yrotation
                        JOINT RightHand
                        {
                            OFFSET -24.318310 -0.000012 0.000006
                            CHANNELS 3 Zrotation Xrotation Yrotation
                            JOINT RightHandThumb1
                            {
                                OFFSET -1.987830 -2.258884 3.162428
                                CHANNELS 3 Zrotation Xrotation Yrotation
                                JOINT RightHandThumb2
                                {
                                    OFFSET -3.002295 -0.000003 0.000001
                                    CHANNELS 3 Zrotation Xrotation Yrotation
                                    JOINT RightHandThumb3
                                    {
                                        OFFSET -2.566098 -0.000004 0.000001
                                        CHANNELS 3 Zrotation Xrotation Yrotation
                                        End Site
                                        {
                                            OFFSET -2.440626 0.000000 0.000000
                                        }
                                    }
                                }
                            }
                            JOINT RightHandIndex1
                            {
                                OFFSET -8.131980 -0.000009 3.162429
                                CHANNELS 3 Zrotation Xrotation Yrotation
                                JOINT RightHandIndex2
                                {
                                    OFFSET -4.517748 -0.000001 0.000001
                                    CHANNELS 3 Zrotation Xrotation Yrotation
                                    JOINT RightHandIndex3
                                    {
                                        OFFSET -2.258874 -0.000001 0.000001
                                        CHANNELS 3 Zrotation Xrotation Yrotation
                                        End Site
                                        {
                                            OFFSET -2.148437 0.000000 0.000000
                                        }
                                    }
                                }
                            }
                            JOINT RightHandMiddle1
                            {
                                OFFSET -8.131950 -0.000004 1.048122
                                CHANNELS 3 Zrotation Xrotation Yrotation
                                JOINT RightHandMiddle2
                                {
                                    OFFSET -4.969543 0.000001 0.000001
                                    CHANNELS 3 Zrotation Xrotation Yrotation
                                    JOINT RightHandMiddle3
                                    {
                                        OFFSET -2.710669 0.000001 0.000001
                                        CHANNELS 3 Zrotation Xrotation Yrotation
                                        End Site
                                        {
                                            OFFSET -2.578118 0.000000 0.000000
                                        }
                                    }
                                }
                            }
                            JOINT RightHandRing1
                            {
                                OFFSET -7.680168 -0.000001 -1.048115
                                CHANNELS 3 Zrotation Xrotation Yrotation
                                JOINT RightHandRing2
                                {
                                    OFFSET -4.517748 -0.000001 0.000001
                                    CHANNELS 3 Zrotation Xrotation Yrotation
                                    JOINT RightHandRing3
                                    {
                                        OFFSET -2.258874 -0.000001 0.000000
                                        CHANNELS 3 Zrotation Xrotation Yrotation
                                        End Site
                                        {
                                            OFFSET -2.148437 0.000000 0.000000
                                        }
                                    }
                                }
                            }
                            JOINT RightHandPinky1
                            {
                                OFFSET -7.228392 0.000002 -3.162425
                                CHANNELS 3 Zrotation Xrotation Yrotation
                                JOINT RightHandPinky2
                                {
                                    OFFSET -3.614207 -0.000005 -0.000002
                                    CHANNELS 3 Zrotation Xrotation Yrotation
                                    JOINT RightHandPinky3
                                    {
                                        OFFSET -1.807082 0.000007 0.000007
                                        CHANNELS 3 Zrotation Xrotation Yrotation
                                        End Site
                                        {
                                            OFFSET -1.718745 0.000000 0.000000
                                        }
                                    }
                                }
                            }
                        }
                    }
                }
            }
        }
    }
    JOINT LeftUpLeg
    {
        OFFSET 9.511065 -0.000002 0.000012
        CHANNELS 3 Zrotation Xrotation Yrotation
        JOINT LeftLeg
        {
            OFFSET 0.000001 -43.875633 0.000010
            CHANNELS 3 Zrotation Xrotation Yrotation
            JOINT LeftFoot
            {
                OFFSET 0.000005 -35.354156 -0.000019
                CHANNELS 3 Zrotation Xrotation Yrotation
                JOINT LeftToeBase
                {
                    OFFSET -0.000000 -6.182192 14.266604
                    CHANNELS 3 Zrotation Xrotation Yrotation
                    End Site
                    {
                        OFFSET 0.000000 0.000000 3.804428
                    }
                }
            }
        }
    }
    JOINT RightUpLeg
    {
        OFFSET -9.511065 0.000002 -0.000012
        CHANNELS 3 Zrotation Xrotation Yrotation
        JOINT RightLeg
        {
            OFFSET -0.000003 -43.875633 0.000002
            CHANNELS 3 Zrotation Xrotation Yrotation
            JOINT RightFoot
            {
                OFFSET -0.000007 -35.354145 0.000018
                CHANNELS 3 Zrotation Xrotation Yrotation
                JOINT RightToeBase
                {
                    OFFSET 0.000000 -6.182191 14.266602
                    CHANNELS 3 Zrotation Xrotation Yrotation
                    End Site
                    {
                        OFFSET 0.000000 0.000000 3.804428
                    }
                }
            }
        }
    }
}
MOTION
Frames:    4
Frame Time:    0.002778
13.091126    90.055313    594.577515    -0.079242    -4.122086    178.339615    0.121172    5.359511    -5.784418    0.605862    5.359222    -5.829690    6.026193    11.211372    -21.926460    6.026195    11.211376    -21.926468    5.069211    -0.859757    1.810646    -62.559238    17.607058    -14.466765    -45.367779    13.389314    -79.404991    8.880401    1.636048    13.186584    47.448219    38.866428    -34.355038    -34.999996    -0.000002    0.000000    -0.000000    0.000000    -0.000000    0.000004    9.999992    -0.000006    -0.000000    0.000000    -0.000000    -0.000000    0.000000    -0.000000    -0.000000    0.000000    -0.000000    -0.000000    0.000000    -0.000000    -0.000000    0.000000    -0.000000    -0.000000    0.000000    -0.000000    -0.000000    0.000000    -0.000000    -0.000000    0.000000    -0.000000    0.000003    -9.999998    -0.000001    -0.000000    0.000000    -0.000000    -0.000000    0.000000    -0.000000    -4.734564    -3.860373    0.719522    60.312901    -16.418999    11.180091    33.710171    10.745420    68.705437    -65.357742    16.138187    -7.587351    -47.448208    38.866428    34.355030    35.000000    -0.000001    0.000001    -0.000000    0.000000    -0.000000    0.000002    10.000001    -0.000000    -0.000000    0.000000    -0.000000    -0.000000    0.000000    -0.000000    -0.000000    0.000000    -0.000000    -0.000000    0.000000    -0.000000    -0.000000    0.000000    -0.000000    -0.000000    0.000000    -0.000000    -0.000000    0.000000    -0.000000    -0.000000    0.000000    -0.000000    -0.000000    -9.999989    -0.000000    -0.000000    0.000000    -0.000000    -0.000000    0.000000    -0.000000    10.838001    -12.810925    3.416891    -0.000000    39.014080    0.000000    -11.616304    -26.728283    15.178502    -0.000000    -0.294421    -0.000002    -16.652067    -25.211462    -0.977553    0.000000    33.593678    -0.000001    7.604435    -8.890316    3.543424    -0.000001    -2.549737    0.000000    
13.092380    90.061020    594.589966    -0.087283    -4.098442    178.437485    0.121335    5.347064    -5.709724    0.606675    5.346778    -5.754951    5.996662    11.180271    -21.923124    5.996663    11.180274    -21.923126    5.045007    -0.863925    1.801010    -62.538250    17.568407    -14.469262    -45.506927    13.391921    -79.333145    8.702817    1.586007    13.147183    47.448223    38.866447    -34.355053    -35.000000    0.000001    -0.000001    -0.000000    0.000000    -0.000000    0.000003    10.000001    0.000001    -0.000000    0.000000    -0.000000    -0.000000    0.000000    -0.000000    -0.000000    0.000000    -0.000000    -0.000000    0.000000    -0.000000    -0.000000    0.000000    -0.000000    -0.000000    0.000000    -0.000000    -0.000000    0.000000    -0.000000    -0.000000    0.000000    -0.000000    0.000003    -9.999995    0.000000    -0.000000    0.000000    -0.000000    -0.000000    0.000000    -0.000000    -4.675820    -3.858064    0.752890    60.266762    -16.462097    11.852978    33.803242    10.781137    68.878716    -65.234154    16.122736    -7.623444    -47.448223    38.866440    34.355045    35.000008    -0.000003    -0.000001    -0.000000    0.000000    -0.000000    -0.000002    10.000002    -0.000000    -0.000000    0.000000    -0.000000    -0.000000    0.000000    -0.000000    -0.000000    0.000000    -0.000000    -0.000000    0.000000    -0.000000    -0.000000    0.000000    -0.000000    -0.000000    0.000000    -0.000000    -0.000000    0.000000    -0.000000    -0.000000    0.000000    -0.000000    0.000001    -9.999999    0.000000    -0.000000    0.000000    -0.000000    -0.000000    0.000000    -0.000000    10.831844    -12.814696    3.406183    0.000000    38.986977    -0.000000    -11.617087    -26.684406    15.104198    -0.000000    -0.295220    0.000003    -16.676296    -25.161819    -0.980421    -0.000002    33.595596    0.000001    7.625713    -8.890244    3.465671    -0.000002    -2.542141    0.000000    
13.093042    90.066032    594.601318    -0.095864    -4.078045    178.537216    0.122224    5.333395    -5.633233    0.611120    5.333105    -5.678675    5.961891    11.145641    -21.931793    5.961890    11.145645    -21.931793    5.031814    -0.872670    1.799408    -62.525524    17.551666    -14.472546    -45.644775    13.391039    -79.267670    8.517927    1.539653    13.140521    47.448231    38.866428    -34.355042    -35.000008    0.000001    -0.000001    -0.000000    0.000000    -0.000000    0.000000    10.000004    -0.000002    -0.000000    0.000000    -0.000000    -0.000000    0.000000    -0.000000    -0.000000    0.000000    -0.000000    -0.000000    0.000000    -0.000000    -0.000000    0.000000    -0.000000    -0.000000    0.000000    -0.000000    -0.000000    0.000000    -0.000000    -0.000000    0.000000    -0.000000    0.000003    -9.999996    -0.000001    -0.000000    0.000000    -0.000000    -0.000000    0.000000    -0.000000    -4.615332    -3.854524    0.792513    60.212597    -16.523157    12.534326    33.842579    10.879453    69.020691    -65.054092    16.160393    -7.700910    -47.448208    38.866428    34.355030    34.999989    0.000001    0.000002    -0.000000    0.000000    -0.000000    0.000000    10.000002    -0.000001    -0.000000    0.000000    -0.000000    -0.000000    0.000000    -0.000000    -0.000000    0.000000    -0.000000    -0.000000    0.000000    -0.000000    -0.000000    0.000000    -0.000000    -0.000000    0.000000    -0.000000    -0.000000    0.000000    -0.000000    -0.000000    0.000000    -0.000000    0.000000    -10.000005    0.000001    -0.000000    0.000000    -0.000000    -0.000000    0.000000    -0.000000    10.823297    -12.821441    3.390587    -0.000000    38.959980    0.000000    -11.617566    -26.643913    15.033176    0.000000    -0.293847    0.000001    -16.698212    -25.110134    -0.976038    0.000000    33.593433    -0.000000    7.639838    -8.898992    3.376280    0.000000    -2.535504    0.000000    
13.095983    90.070038    594.610291    -0.102482    -4.053829    178.650513    0.122528    5.320775    -5.560389    0.612640    5.320484    -5.605836    5.933023    11.117122    -21.943611    5.933024    11.117122    -21.943613    5.015999    -0.886156    1.797675    -62.499817    17.506741    -14.477972    -45.728748    13.408048    -79.175331    8.302769    1.497346    13.202900    47.448208    38.866421    -34.355030    -34.999996    0.000009    0.000000    -0.000000    0.000000    -0.000000    -0.000003    9.999999    -0.000001    -0.000000    0.000000    -0.000000    -0.000000    0.000000    -0.000000    -0.000000    0.000000    -0.000000    -0.000000    0.000000    -0.000000    -0.000000    0.000000    -0.000000    -0.000000    0.000000    -0.000000    -0.000000    0.000000    -0.000000    -0.000000    0.000000    -0.000000    -0.000001    -9.999996    -0.000007    -0.000000    0.000000    -0.000000    -0.000000    0.000000    -0.000000    -4.548281    -3.857440    0.825043    60.186253    -16.605253    13.216386    33.902489    10.957427    69.161850    -64.895424    16.181906    -7.764709    -47.448215    38.866432    34.355038    34.999992    -0.000000    -0.000000    -0.000000    0.000000    -0.000000    0.000001    10.000005    -0.000001    -0.000000    0.000000    -0.000000    -0.000000    0.000000    -0.000000    -0.000000    0.000000    -0.000000    -0.000000    0.000000    -0.000000    -0.000000    0.000000    -0.000000    -0.000000    0.000000    -0.000000    -0.000000    0.000000    -0.000000    -0.000000    0.000000    -0.000000    0.000000    -10.000001    0.000000    -0.000000    0.000000    -0.000000    -0.000000    0.000000    -0.000000    10.815927    -12.828805    3.362638    0.000000    38.937943    -0.000000    -11.620624    -26.601074    14.958635    -0.000000    -0.294428    0.000001    -16.733038    -25.068865    -0.998478    -0.000002    33.630642    0.000001    7.687699    -8.904346    3.309644    -0.000001    -2.530641    -0.000000    
